# Made in Blockbench 4.2.5
mtllib CBR-27 Magazine.mtl

o cube
v 0.10375000000000001 0.170471875 0.016943125000000055
v 0.10375000000000001 0.337346875 0.016943125000000017
v 0.10375000000000001 0.170471875 -0.02974937499999997
v 0.10375000000000001 0.337346875 -0.02974937500000001
v -0.03875000000000001 0.337346875 0.016943125000000017
v -0.03875000000000001 0.170471875 0.016943125000000055
v -0.03875000000000001 0.337346875 -0.02974937500000001
v -0.03875000000000001 0.170471875 -0.02974937499999997
vt 0 1
vt 0.0625 1
vt 0.0625 0.9375
vt 0 0.9375
vt 0 1
vt 0.0625 1
vt 0.0625 0.9375
vt 0 0.9375
vt 0 1
vt 0.0625 1
vt 0.0625 0.9375
vt 0 0.9375
vt 0 1
vt 0.0625 1
vt 0.0625 0.9375
vt 0 0.9375
vt 0.4375 0.6875
vt 1 0.6875
vt 1 0
vt 0.4375 0
vt 0 1
vt 0.0625 1
vt 0.0625 0.9375
vt 0 0.9375
vn 0 1 -2.220446049250313e-16
vn 1 0 0
vn 0 -1 2.220446049250313e-16
vn -1 0 0
vn 0 2.220446049250313e-16 1
vn 0 -2.220446049250313e-16 -1
usemtl m_0
f 4/4/1 7/3/1 5/2/1 2/1/1
f 3/8/2 4/7/2 2/6/2 1/5/2
f 8/12/3 3/11/3 1/10/3 6/9/3
f 7/16/4 8/15/4 6/14/4 5/13/4
f 6/20/5 1/19/5 2/18/5 5/17/5
f 7/24/6 4/23/6 3/22/6 8/21/6
o cube
v 0.03271442554665413 -0.0010232248857358628 0.01756812500000008
v 0.10375003767942392 0.1704719133366718 0.017568125000000042
v 0.03271442554665413 -0.0010232248857358628 -0.03037437499999992
v 0.10375003767942392 0.17047191333667178 -0.030374374999999957
v -0.027902795703434458 0.22500430244869707 0.017568125000000028
v -0.09893840783620422 0.05350916422628943 0.017568125000000066
v -0.027902795703434458 0.22500430244869707 -0.03037437499999997
v -0.09893840783620422 0.05350916422628943 -0.030374374999999933
vt 0 1
vt 0.0625 1
vt 0.0625 0.9375
vt 0 0.9375
vt 0 1
vt 0.0625 1
vt 0.0625 0.9375
vt 0 0.9375
vt 0 1
vt 0.0625 1
vt 0.0625 0.9375
vt 0 0.9375
vt 0 1
vt 0.0625 1
vt 0.0625 0.9375
vt 0 0.9375
vt 0.4375 0.8125
vt 1 0.8125
vt 1 0
vt 0.4375 0
vt 0 1
vt 0.0625 1
vt 0.0625 0.9375
vt 0 0.9375
vn 0.3826834323650897 0.9238795325112867 -2.0514246579479128e-16
vn 0.9238795325112867 -0.3826834323650897 8.497279155086129e-17
vn -0.3826834323650897 -0.9238795325112867 2.0514246579479128e-16
vn -0.9238795325112867 0.3826834323650897 -8.497279155086129e-17
vn 0 2.220446049250313e-16 1
vn 0 -2.220446049250313e-16 -1
usemtl m_0
f 12/28/7 15/27/7 13/26/7 10/25/7
f 11/32/8 12/31/8 10/30/8 9/29/8
f 16/36/9 11/35/9 9/34/9 14/33/9
f 15/40/10 16/39/10 14/38/10 13/37/10
f 14/44/11 9/43/11 10/42/11 13/41/11
f 15/48/12 12/47/12 11/46/12 16/45/12